<?xml version="1.0" encoding="UTF-8" standalone="no"?>
<!DOCTYPE svg PUBLIC "-//W3C//DTD SVG 1.1//EN" "http://www.w3.org/Graphics/SVG/1.1/DTD/svg11.dtd">
<svg width="100%" height="100%" viewBox="0 0 1246 257" version="1.1" xmlns="http://www.w3.org/2000/svg" xmlns:xlink="http://www.w3.org/1999/xlink" xml:space="preserve" xmlns:serif="http://www.serif.com/" style="fill-rule:evenodd;clip-rule:evenodd;stroke-linejoin:round;stroke-miterlimit:2;">
    <g transform="matrix(1,0,0,1,-2431.734454,-1950)">
        <g transform="matrix(1,0,0,1,1893.91916,1645.447825)">
            <g id="White-1" serif:id="White 1" transform="matrix(1,0,0,1,-23.69311,-119.190779)">
                <g id="Orignal">
                    <g transform="matrix(0.563782,0,0,0.205227,-1176.507438,65.260261)">
                        <path d="M3654.717,2693.802L3701.733,2048L3772.258,2048L3761.176,2198.38L3719.868,2198.38L3758.825,2230.67L3725.242,2693.802L3654.717,2693.802Z" style="fill:white;"/>
                        <path d="M3808.528,2048L4048.313,2048L4037.231,2198.38L3917.338,2198.38L3956.631,2230.67L3922.712,2693.802L3844.462,2693.802L3880.397,2198.38L3797.446,2198.38L3808.528,2048Z" style="fill:white;"/>
                        <path d="M4203.132,2198.38L4242.425,2230.67L4221.603,2517.59C4221.156,2524.356 4221.715,2530.352 4223.282,2535.58C4224.85,2540.808 4226.865,2543.422 4229.327,2543.422L4321.346,2543.422C4325.376,2543.422 4327.951,2537.579 4329.07,2525.893L4332.428,2478.842L4402.953,2478.842L4393.55,2607.08C4391.759,2632.912 4387.281,2653.823 4380.117,2669.815C4372.952,2685.806 4364.668,2693.802 4355.265,2693.802L4180.296,2693.802C4174.922,2693.802 4169.885,2690.726 4165.183,2684.576C4160.482,2678.425 4156.564,2669.969 4153.429,2659.205C4150.295,2648.442 4148.056,2636.295 4146.712,2622.764C4145.369,2609.232 4145.257,2595.086 4146.377,2580.325L4178.952,2134.722C4180.744,2108.89 4185.221,2087.978 4192.386,2071.987C4199.55,2055.996 4207.834,2048 4217.237,2048L4388.177,2048C4394.222,2048 4399.875,2051.537 4405.136,2058.61C4410.398,2065.683 4414.819,2075.216 4418.402,2087.209C4421.984,2099.203 4424.559,2112.888 4426.126,2128.264C4427.693,2143.64 4427.805,2159.631 4426.462,2176.238L4420.081,2262.96L4349.556,2262.96L4352.578,2224.212C4353.026,2217.446 4352.466,2211.449 4350.899,2206.221C4349.332,2200.993 4347.317,2198.38 4344.854,2198.38L4203.132,2198.38Z" style="fill:white;"/>
                        <path d="M4440.567,2693.802L4487.583,2048L4565.833,2048L4532.249,2511.132L4490.606,2543.422L4675.65,2543.422L4664.568,2693.802L4440.567,2693.802Z" style="fill:white;"/>
                        <path d="M4903.009,2693.802L4740.13,2693.802C4733.861,2693.802 4728.096,2690.265 4722.835,2683.192C4717.573,2676.119 4713.207,2666.586 4709.737,2654.592C4706.267,2642.599 4703.748,2628.76 4702.181,2613.076C4700.614,2597.393 4700.39,2581.248 4701.509,2564.641L4739.123,2048L4809.648,2048L4776.064,2511.132L4736.772,2543.422L4869.09,2543.422C4870.881,2543.422 4872.504,2541.731 4873.96,2538.348C4875.415,2534.965 4876.366,2530.814 4876.814,2525.893L4911.741,2048L4982.266,2048L4941.63,2607.08C4939.839,2632.912 4935.305,2653.823 4928.029,2669.815C4920.752,2685.806 4912.413,2693.802 4903.009,2693.802Z" style="fill:white;"/>
                        <path d="M5239.514,2693.802L4995.699,2693.802L5042.716,2048L5253.283,2048C5259.552,2048 5265.317,2051.537 5270.579,2058.61C5275.84,2065.683 5280.206,2075.216 5283.676,2087.209C5287.147,2099.203 5289.665,2112.888 5291.233,2128.264C5292.8,2143.64 5292.912,2159.631 5291.568,2176.238L5284.18,2280.489C5282.613,2300.17 5278.975,2316.623 5273.265,2329.846C5267.556,2343.07 5260.896,2349.682 5253.283,2349.682L5258.321,2349.682C5263.246,2349.682 5267.836,2352.603 5272.09,2358.446C5276.344,2364.289 5279.87,2371.977 5282.669,2381.51C5285.467,2391.044 5287.482,2401.961 5288.714,2414.262C5289.945,2426.563 5290.113,2439.171 5289.218,2452.087L5277.799,2607.08C5276.008,2632.912 5271.53,2653.823 5264.366,2669.815C5257.201,2685.806 5248.918,2693.802 5239.514,2693.802ZM5210.633,2537.887C5211.976,2534.811 5212.871,2530.814 5213.319,2525.893L5219.364,2440.094C5219.812,2433.328 5219.308,2427.332 5217.853,2422.104C5216.398,2416.876 5214.439,2414.262 5211.976,2414.262L5090.404,2414.262L5081.001,2543.422L5205.595,2543.422C5207.386,2543.422 5209.065,2541.577 5210.633,2537.887ZM5206.938,2285.101C5210.968,2285.101 5213.543,2279.259 5214.663,2267.573L5217.685,2224.212C5218.133,2217.446 5217.573,2211.449 5216.006,2206.221C5214.439,2200.993 5212.424,2198.38 5209.961,2198.38L5064.545,2198.38L5103.838,2230.67L5099.808,2285.101L5206.938,2285.101Z" style="fill:white;"/>
                    </g>
                    <g id="lightmode" transform="matrix(0.50035,0,0,0.50035,247.512381,-925.521569)">
                        <g transform="matrix(1.142857,0,0,1.142857,-4501.590154,557.212596)">
                            <path d="M4696.857,1995.552C4719.212,1988.06 4743.136,1984 4768,1984C4832.956,1984 4891.491,2011.708 4932.421,2055.939C4934.772,2068.939 4936,2082.327 4936,2096C4936,2219.629 4835.629,2320 4712,2320C4647.044,2320 4588.509,2292.292 4547.579,2248.061C4545.228,2235.061 4544,2221.673 4544,2208C4544,2134.674 4579.308,2069.531 4633.836,2028.657C4639.681,2047.199 4676.168,2042.968 4700.722,2032.711C4719.467,2024.881 4698.937,2080.341 4719.516,2051.797C4738.774,2025.086 4762.992,1983.833 4717.079,2007.303C4706.717,2012.601 4694.736,2012.804 4696.857,1995.552Z" style="fill:none;"/>
                        </g>
                        <g transform="matrix(1.142857,0,0,1.142857,-4565.590154,429.212596)">
                            <path d="M4907.443,2112.083C4881.649,2101.71 4853.486,2096 4824,2096C4799.136,2096 4775.212,2100.06 4752.857,2107.552C4754.056,2097.802 4759.759,2082.475 4772.805,2059.341C4794.347,2021.14 4796.548,2007.341 4748.579,2045.351C4738.776,2053.119 4708.474,2074.577 4691.158,2124.122C4688.767,2130.964 4688.497,2136.409 4689.836,2140.657C4635.308,2181.531 4600,2246.674 4600,2320C4600,2333.673 4601.228,2347.061 4603.579,2360.061C4566.607,2320.108 4544,2266.673 4544,2208C4544,2084.371 4644.371,1984 4768,1984C4877.956,1984 4969.514,2063.397 4988.421,2167.939C4986.145,2165.479 4983.814,2163.07 4981.43,2160.714C4979.456,2154.037 4963.572,2121.549 4942.849,2111.574C4935.697,2108.131 4905.963,2110.846 4907.443,2112.083Z" style="fill:white;"/>
                        </g>
                        <g transform="matrix(1.142857,0,0,1.142857,-4565.590154,429.212596)">
                            <path d="M4907.443,2112.083C4905.963,2110.846 4935.697,2108.131 4942.849,2111.574C4963.572,2121.549 4979.456,2154.037 4981.43,2160.714C4960.684,2140.207 4935.957,2123.719 4908.519,2112.518C4908.178,2112.362 4907.944,2112.267 4907.826,2112.237C4907.699,2112.185 4907.571,2112.134 4907.443,2112.083Z" style="fill:none;"/>
                        </g>
                        <g transform="matrix(1,-0,0,1,-4045.82196,644.419897)">
                            <path d="M4789.483,2404.656C4757.885,2427.945 4736.91,2462.541 4747.247,2485.215C4757.584,2507.888 4830.765,2554.605 4850.224,2547.952C4869.683,2541.299 4875.917,2470.535 4864,2445.298C4854.264,2424.68 4811.135,2388.698 4789.483,2404.656Z" style="fill:white;"/>
                        </g>
                        <g transform="matrix(1.335932,0,0,1.335932,-4.2182,-208.743846)">
                            <path d="M840.775,2417.986C829.861,2434.045 821.386,2430.924 801.632,2429.522C781.568,2428.099 769.293,2446.564 756.384,2485.505C748.929,2507.993 741.497,2529.009 714.129,2538.046C685.62,2547.46 660.745,2527.78 642.074,2478.075C626.806,2437.43 631.616,2411.122 666.098,2376.873C702.025,2341.188 751.581,2315.883 785.699,2305.333C804.448,2299.535 818.766,2300.132 830.85,2335.037C837.724,2354.892 852.072,2401.364 840.775,2417.986ZM705.512,2391.206C699.073,2391.707 690.445,2397.659 691.04,2404.09C692.235,2417.02 693.534,2440.366 721.886,2468.788C725.44,2472.351 734.171,2464.626 733.867,2459.603C731.138,2414.467 718.018,2390.235 705.512,2391.206ZM798.098,2338.867C792.286,2338.618 786.992,2338.422 786.111,2345.419C785.147,2353.077 789.157,2367.701 808.253,2387.387C814.572,2393.901 821.476,2385.88 820.552,2381.087C816.699,2361.09 806.505,2339.226 798.098,2338.867Z" style="fill:white;"/>
                        </g>
                        <g>
                            <g transform="matrix(1,0,0,1,-3401.035847,681.746109)">
                                <path d="M4339.334,2304C4330.731,2304.668 4319.206,2312.62 4320,2321.212C4321.597,2338.486 4323.332,2369.674 4361.209,2407.644C4365.957,2412.404 4377.621,2402.084 4377.215,2395.373C4373.569,2335.075 4356.04,2302.702 4339.334,2304Z" style="fill:none;"/>
                            </g>
                            <g transform="matrix(0.832297,-0.074018,0.086062,0.967727,-2750.423245,995.271224)">
                                <path d="M4341.041,2316.634C4331.821,2315.586 4323.419,2314.672 4321.024,2324.149C4318.404,2334.52 4322.718,2355.039 4350.341,2384.328C4359.482,2394.019 4371.613,2383.873 4370.821,2377.197C4367.516,2349.338 4354.38,2318.151 4341.041,2316.634Z" style="fill:none;"/>
                            </g>
                        </g>
                        <g transform="matrix(-0.226526,0.685458,0.685458,0.226526,197.714271,-677.150432)">
                            <path d="M4332.473,2407.077C4355.358,2376.505 4382.828,2350.185 4413.54,2328.794C4407.819,2324.67 4399.5,2322.371 4388.028,2322.566C4304.954,2323.983 4257.648,2358.872 4241.102,2369.749C4160.14,2422.972 4181.975,2426.518 4250.096,2413.113C4291.351,2404.995 4317.222,2404.036 4332.473,2407.077Z" style="fill:none;"/>
                        </g>
                        <g transform="matrix(-0.226526,0.685458,0.685458,0.226526,197.714271,-677.150432)">
                            <path d="M4332.473,2407.077C4359.459,2412.459 4353.202,2430.366 4340.092,2443.311C4282.006,2500.666 4356.044,2484.754 4405.76,2469.076C4458.888,2452.322 4365.326,2455.632 4386.408,2431.346C4414.023,2399.533 4438.507,2346.789 4413.54,2328.794C4382.828,2350.185 4355.358,2376.505 4332.473,2407.077Z" style="fill:white;"/>
                        </g>
                    </g>
                </g>
            </g>
        </g>
    </g>
</svg>
